<?xml version="1.0" standalone="no"?>
<!DOCTYPE svg PUBLIC "-//W3C//DTD SVG 20010904//EN"
 "http://www.w3.org/TR/2001/REC-SVG-20010904/DTD/svg10.dtd">
<svg version="1.0" xmlns="http://www.w3.org/2000/svg"
 width="16.000000pt" height="16.000000pt" viewBox="0 0 16.000000 16.000000"
 preserveAspectRatio="xMidYMid meet">
<metadata>
Created by potrace 1.11, written by Peter Selinger 2001-2013
</metadata>
<g transform="translate(0.000000,16.000000) scale(0.010000,-0.010000)"
fill="#000000" stroke="none">
<path d="M95 1590 c-4 -6 -5 -27 -3 -48 l3 -37 -43 3 -42 4 0 -756 0 -756 790
0 790 0 0 755 0 755 -42 0 -43 0 0 42 0 43 -702 3 c-474 1 -704 -1 -708 -8z
m1405 -790 l0 -700 -700 0 -700 0 0 700 0 700 700 0 700 0 0 -700z"/>
<path d="M200 1350 l0 -50 50 0 50 0 0 50 0 50 -50 0 -50 0 0 -50z"/>
<path d="M1300 1350 l0 -50 50 0 50 0 0 50 0 50 -50 0 -50 0 0 -50z"/>
<path d="M539 1152 c-9 -9 -22 -35 -29 -57 -11 -34 -122 -331 -145 -387 -6
-16 -1 -18 49 -18 31 0 56 5 56 10 0 6 6 10 13 10 7 0 19 19 27 43 l15 42 76
3 76 3 17 -56 18 -55 44 0 44 0 0 -105 0 -105 133 0 c126 0 137 2 188 27 95
49 116 141 45 208 l-32 30 24 20 c29 25 40 97 20 135 -25 48 -70 60 -215 60
-82 0 -133 -4 -133 -10 0 -5 -6 -10 -14 -10 -10 0 -16 -14 -18 -42 -3 -41 -6
-36 -52 92 -27 74 -53 145 -58 158 -7 20 -14 22 -70 21 -46 0 -67 -5 -79 -17z
m100 -239 c1 -9 -13 -13 -39 -13 -22 0 -40 2 -40 4 0 4 27 82 36 106 4 10 13
-3 24 -35 10 -27 19 -56 19 -62z m409 -65 c7 -7 12 -25 12 -40 0 -28 0 -28
-65 -28 l-65 0 0 40 0 40 53 0 c29 0 58 -5 65 -12z m12 -188 c23 -23 26 -50 8
-68 -7 -7 -39 -12 -75 -12 l-63 0 0 50 0 50 55 0 c42 0 60 -5 75 -20z"/>
<path d="M200 250 l0 -50 50 0 50 0 0 50 0 50 -50 0 -50 0 0 -50z"/>
<path d="M1300 250 l0 -50 50 0 50 0 0 50 0 50 -50 0 -50 0 0 -50z"/>
</g>
</svg>
